<?xml version="1.0" encoding="UTF-8" standalone="no"?>
<!-- Created with Inkscape (http://www.inkscape.org/) -->

<svg
   width="265.29099mm"
   height="245.03529mm"
   viewBox="0 0 265.29099 245.03529"
   version="1.1"
   id="svg1"
   xml:space="preserve"
   inkscape:version="1.4.3 (0d15f75, 2025-12-25)"
   sodipodi:docname="icon.svg"
   xmlns:inkscape="http://www.inkscape.org/namespaces/inkscape"
   xmlns:sodipodi="http://sodipodi.sourceforge.net/DTD/sodipodi-0.dtd"
   xmlns="http://www.w3.org/2000/svg"
   xmlns:svg="http://www.w3.org/2000/svg"><sodipodi:namedview
     id="namedview1"
     pagecolor="#505050"
     bordercolor="#ffffff"
     borderopacity="1"
     inkscape:showpageshadow="0"
     inkscape:pageopacity="0"
     inkscape:pagecheckerboard="1"
     inkscape:deskcolor="#505050"
     inkscape:document-units="mm"
     inkscape:zoom="0.70710678"
     inkscape:cx="487.19657"
     inkscape:cy="545.17933"
     inkscape:window-width="1920"
     inkscape:window-height="1009"
     inkscape:window-x="-8"
     inkscape:window-y="760"
     inkscape:window-maximized="1"
     inkscape:current-layer="layer1" /><defs
     id="defs1" /><g
     inkscape:label="Layer 1"
     inkscape:groupmode="layer"
     id="layer1"
     transform="translate(22.972245,-21.805849)"><path
       style="fill:currentColor;fill-opacity:1;stroke:none"
       d="M 13.45412,22.261916 C 8.3606,22.932676 3.1138,24.232532 0.62958,29.293382 -1.49575,33.623124 -0.5688,39.44147 -0.5688,44.110048 V 75.33088 c 0,4.633744 -1.16121,11.15624 1.1992,15.34583 2.0795,3.69099 5.92692,5.21749 9.64872,6.73258 4.61209,1.87752 9.1492,3.93712 13.75833,5.82083 2.50127,1.02225 5.00406,2.65803 7.67291,3.19501 5.55549,1.11778 4.71823,-4.33271 4.8701,-8.0755 0.2642,-6.51136 -0.40793,-13.07802 -0.0555,-19.579167 0.12181,-2.247344 -0.3361,-5.371604 1.61588,-6.971248 2.62683,-2.152694 8.88403,-0.966252 12.09039,-0.966252 h 31.75 c 28.53756,0 60.87396,-4.455251 85.38487,13.338587 30.93115,22.45465 36.30353,69.62785 17.44678,101.49057 -6.338,10.70949 -15.82931,19.36886 -26.63166,25.3896 -16.25992,9.06253 -34.028,9.5354 -52.12291,9.5354 H 67.16457 45.46874 c -2.60687,0 -6.51217,0.01 -8.16657,-2.40596 -1.3689,-1.99873 -0.82927,-5.59239 -0.82927,-7.91279 v -18.52083 -44.45 c 0,-7.00464 1.11634,-14.75089 -3.4847,-20.63362 -2.55807,-3.27065 -6.59846,-4.64903 -10.27363,-6.23609 -4.59717,-1.98521 -9.12622,-4.15784 -13.75833,-6.05662 -4.90303,-2.00984 -9.63613,-4.43634 -14.55208,-6.42614 -3.53911,-1.43251 -7.22897,-2.53901 -10.84792,-0.65392 -6.33234,3.29847 -6.35886,10.02466 -6.09583,16.19389 0.27362,6.41762 0.21068,13.15829 -0.0141,19.57815 -0.39766,11.35869 0.15437,22.76041 0.0235,34.13226 -0.21803,18.94316 -0.71428,37.97078 -0.25029,56.875 0.24009,9.78182 -2.07565,21.72765 7.13048,28.31022 1.63415,1.16844 3.40662,2.15848 5.29167,2.86039 6.46698,2.40807 14.11263,1.38356 20.90208,1.38356 h 39.42291 57.15 c 16.30408,0 32.51145,0.35852 48.41875,-3.77991 19.13158,-4.97725 36.45795,-14.95193 50.50111,-28.86266 25.12683,-24.88984 36.28221,-59.634 36.28221,-94.35743 0,-18.81723 -3.13153,-37.70008 -11.44526,-54.76874 -12.46968,-25.601102 -34.44986,-45.496269 -61.05056,-55.611704 -17.0836,-6.496373 -35.4129,-7.094544 -53.44583,-7.094544 H 80.12916 35.94375 c -7.32505,0 -15.23037,-0.843666 -22.48958,0.112284 m 52.91666,89.972614 c -6.95073,1.40161 -6.7678,10.71094 -0.52917,12.98521 2.23144,0.81345 5.06402,0.38197 7.40834,0.38197 h 14.55208 49.74167 15.34583 c 2.74221,0 5.60329,0.27167 7.93729,-1.47033 4.42633,-3.30364 3.33124,-11.22807 -2.64563,-11.97443 -5.98272,-0.74708 -12.48854,-0.049 -18.52083,-0.049 h -37.57083 -23.8125 c -3.78604,0 -8.1929,-0.62222 -11.90625,0.12657 m 0,36.26037 c -6.72638,1.29233 -6.98132,10.32274 -0.79375,12.67652 1.94348,0.73931 4.30926,0.41362 6.35,0.41362 h 12.17083 42.06875 12.7 c 2.59251,0 5.1322,0.228 7.40732,-1.27392 5.19442,-3.4291 2.1952,-11.26288 -3.43857,-11.86971 -12.41628,-1.33737 -25.3686,0.34318 -37.83541,0.0586 -7.9757,-0.18206 -15.95153,0.0148 -23.92479,-0.10739 -4.61679,-0.0708 -10.17173,-0.76859 -14.70438,0.10227 m 11.37708,31.76816 c -3.83614,0.13863 -10.10593,-1.10267 -13.49375,0.81765 -5.13029,2.90801 -3.61191,9.92075 1.5875,11.73414 3.2775,1.14308 8.18056,0.2556 11.64167,0.2556 8.12266,0 16.80551,0.88487 24.87083,-0.0341 6.44611,-0.73446 7.94766,-9.81191 1.85209,-12.27373 -2.87236,-1.16006 -6.77882,-0.49366 -9.8,-0.45302 -5.54534,0.0746 -11.12423,-0.24653 -16.65834,-0.0465 z"
       id="path1" /></g></svg>
